M48
; DRILL file {KiCad 9.0.4} date 2026-02-27T16:14:02-0700
; FORMAT={-:-/ absolute / metric / decimal}
; #@! TF.CreationDate,2026-02-27T16:14:02-07:00
; #@! TF.GenerationSoftware,Kicad,Pcbnew,9.0.4
; #@! TF.FileFunction,Plated,1,4,PTH
FMAT,2
METRIC
; #@! TA.AperFunction,Plated,PTH,ViaDrill
T1C0.300
; #@! TA.AperFunction,Plated,PTH,ComponentDrill
T2C0.700
; #@! TA.AperFunction,Plated,PTH,ComponentDrill
T3C0.900
; #@! TA.AperFunction,Plated,PTH,ComponentDrill
T4C1.194
; #@! TA.AperFunction,Plated,PTH,ComponentDrill
T5C1.700
%
G90
G05
T1
X54.1Y-107.1
X57.8Y-113.1
X58.25Y-92.3
X58.5Y-109.6
X60.85Y-110.15
X64.7Y-91.25
X64.9Y-105.25
X65.3Y-94.55
X66.2Y-110.75
X66.3Y-97.4
X66.5Y-113.05
X66.7Y-109.45
X67.6Y-105.6
X68.2Y-98.15
X68.4Y-107.85
X69.65Y-91.2
X69.75Y-107.2
X69.8Y-94.65
X70.1Y-103.6
X70.4Y-91.95
X70.4Y-108.5
X71.9Y-97.9
X72.1Y-108.8
X72.15Y-112.1
X73.1Y-92.0
X73.15Y-113.35
X75.1Y-104.7
X75.25Y-103.55
X75.3Y-101.3
X75.45Y-109.2
X75.8Y-105.95
X76.0Y-102.5
X76.35Y-95.3
X76.4Y-98.1
X77.15Y-103.95
X77.3Y-91.3
X77.35Y-93.95
X78.75Y-101.3
X78.9Y-111.5
X79.46Y-112.289
X79.897Y-112.959
X80.3Y-113.65
X80.45Y-101.6
X80.485Y-105.999
X81.2Y-98.45
X81.2Y-99.5
X81.6Y-107.95
X82.35Y-101.3
X82.35Y-109.15
X82.7Y-113.5
X82.9Y-105.25
X83.8Y-109.8
X83.85Y-98.45
X84.55Y-101.45
X85.2Y-91.55
X85.706Y-109.523
X86.9Y-100.6
X87.3Y-93.7
X87.3Y-97.7
X88.0Y-91.65
X88.25Y-99.55
X89.25Y-106.6
X89.4Y-93.1
X90.4Y-91.15
X90.8Y-113.35
X90.85Y-106.45
X90.9Y-108.1
X90.95Y-111.0
X91.25Y-109.75
X91.4Y-104.7
X91.875Y-108.323
X91.9Y-94.55
X92.45Y-99.1
X92.5Y-101.2
X92.8Y-94.9
X93.75Y-94.7
X94.4Y-106.1
X94.45Y-91.15
X94.5Y-101.55
X94.7Y-105.0
X94.8Y-103.05
X95.3Y-97.6
X95.35Y-112.85
X96.05Y-91.55
X96.55Y-93.85
X97.3Y-99.3
X97.9Y-98.05
X98.4Y-102.5
X98.65Y-105.8
X98.95Y-96.8
X99.3Y-107.45
X100.1Y-94.1
X100.15Y-98.45
X101.1Y-104.55
X105.7Y-99.4
X106.6Y-99.75
X107.9Y-99.75
X110.55Y-102.2
X110.85Y-109.4
X111.05Y-103.75
X112.3Y-112.3
X112.45Y-101.65
X113.5Y-106.7
X113.582Y-105.018
X113.7Y-108.3
X114.1Y-112.3
X115.05Y-100.0
X115.15Y-101.2
X115.2Y-108.9
X115.9Y-112.25
X117.35Y-104.4
X117.65Y-112.35
X118.1Y-102.05
X118.15Y-104.35
X118.35Y-108.0
X118.4Y-106.8
X118.55Y-98.05
X118.7Y-110.5
X118.75Y-109.4
X120.25Y-109.15
X120.3Y-112.9
X120.65Y-110.35
X121.5Y-101.95
X121.5Y-103.9
X121.65Y-109.6
X122.45Y-95.15
X123.85Y-95.95
T2
X101.87Y-96.08
X101.87Y-97.35
X103.14Y-96.08
X103.14Y-97.35
X104.41Y-96.08
X104.41Y-97.35
X105.68Y-96.08
X105.68Y-97.35
X106.95Y-96.08
X106.95Y-97.35
X108.22Y-96.08
X108.22Y-97.35
X109.49Y-96.08
X109.49Y-97.35
X110.76Y-96.08
X110.76Y-97.35
X112.03Y-96.08
X112.03Y-97.35
X113.3Y-96.08
X113.3Y-97.35
T3
X57.4Y-101.75
X65.0Y-101.75
T4
X95.383Y-110.075
X98.883Y-110.075
T5
X104.007Y-102.212
X107.968Y-102.212
M30
